<svg id="SvgjsSvg1012" width="288" height="288" xmlns="http://www.w3.org/2000/svg" version="1.1" xmlns:xlink="http://www.w3.org/1999/xlink" xmlns:svgjs="http://svgjs.com/svgjs"><defs id="SvgjsDefs1013"></defs><g id="SvgjsG1014"><svg xmlns="http://www.w3.org/2000/svg" enable-background="new 0 0 16 16" viewBox="0 0 16 16" width="288" height="288"><path fill="#ffffff" d="M5.002,2v4v6.205c-0.684-0.298-1.633-0.298-2.551,0.174c-1.364,0.702-1.749,1.98-1.224,2.791
		s1.96,1.152,3.325,0.451c0.982-0.506,1.456-1.311,1.449-2.023V5.8l8-1.6v7.005c-0.685-0.298-1.633-0.298-2.551,0.174
		c-1.364,0.702-1.749,1.98-1.224,2.791c0.524,0.811,1.959,1.152,3.324,0.451c0.98-0.505,1.455-1.309,1.449-2.021V4V1V0L5.002,2z" class="color030104 svgShape"></path></svg></g></svg>