<svg id="SvgjsSvg1011" width="288" height="288" xmlns="http://www.w3.org/2000/svg" version="1.1" xmlns:xlink="http://www.w3.org/1999/xlink" xmlns:svgjs="http://svgjs.com/svgjs"><defs id="SvgjsDefs1012"></defs><g id="SvgjsG1013"><svg xmlns="http://www.w3.org/2000/svg" viewBox="0 0 32 32" width="288" height="288"><g data-name="Layer 2" fill="#ffffff" class="color000 svgShape"><path d="M23 8H9A1 1 0 019 6H23a1 1 0 010 2zM21 5H11a1 1 0 010-2H21a1 1 0 010 2zM25 9H7a1 1 0 00-1 1V28a1 1 0 001 1H25a1 1 0 001-1V10A1 1 0 0025 9zm-5.17 6.55a1 1 0 01-1.39.28l-1.45-1V23c0 1.16-1.26 2-3 2s-3-.84-3-2 1.26-2 3-2a4.72 4.72 0 011 .11V13s0-.06 0-.09a1.06 1.06 0 01.12-.38s0-.06 0-.08l.07-.07.14-.14.16-.11.17-.07.2 0L16 12l.09 0 .2 0 .18.08.08 0 3 2A1 1 0 0119.83 15.55z" fill="#ffffff" class="color000 svgShape"></path></g></svg></g></svg>