<svg xmlns="http://www.w3.org/2000/svg" version="1.1" xmlns:xlink="http://www.w3.org/1999/xlink" xmlns:svgjs="http://svgjs.com/svgjs" width="1440" height="560" preserveAspectRatio="none" viewBox="0 0 1440 560"><g mask="url(&quot;#SvgjsMask1006&quot;)" fill="none"><rect width="1440" height="560" x="0" y="0" fill="rgba(0, 0, 0, 0.64)"></rect><path d="M527 426L526 286" stroke-width="6" stroke="url(#SvgjsLinearGradient1007)" stroke-linecap="round" class="Down"></path><path d="M1026 254L1025 663" stroke-width="10" stroke="url(#SvgjsLinearGradient1007)" stroke-linecap="round" class="Down"></path><path d="M1197 488L1196 681" stroke-width="10" stroke="url(#SvgjsLinearGradient1007)" stroke-linecap="round" class="Down"></path><path d="M434 143L433 -212" stroke-width="6" stroke="url(#SvgjsLinearGradient1007)" stroke-linecap="round" class="Down"></path><path d="M618 397L617 193" stroke-width="6" stroke="url(#SvgjsLinearGradient1008)" stroke-linecap="round" class="Up"></path><path d="M1214 105L1213 365" stroke-width="10" stroke="url(#SvgjsLinearGradient1008)" stroke-linecap="round" class="Up"></path><path d="M1343 472L1342 138" stroke-width="10" stroke="url(#SvgjsLinearGradient1008)" stroke-linecap="round" class="Up"></path><path d="M897 452L896 850" stroke-width="8" stroke="url(#SvgjsLinearGradient1007)" stroke-linecap="round" class="Down"></path><path d="M964 90L963 471" stroke-width="8" stroke="url(#SvgjsLinearGradient1008)" stroke-linecap="round" class="Up"></path><path d="M703 407L702 -11" stroke-width="6" stroke="url(#SvgjsLinearGradient1007)" stroke-linecap="round" class="Down"></path><path d="M1154 173L1153 -91" stroke-width="8" stroke="url(#SvgjsLinearGradient1007)" stroke-linecap="round" class="Down"></path><path d="M1293 49L1292 454" stroke-width="6" stroke="url(#SvgjsLinearGradient1008)" stroke-linecap="round" class="Up"></path><path d="M725 93L724 337" stroke-width="8" stroke="url(#SvgjsLinearGradient1008)" stroke-linecap="round" class="Up"></path><path d="M943 410L942 155" stroke-width="6" stroke="url(#SvgjsLinearGradient1007)" stroke-linecap="round" class="Down"></path><path d="M808 13L807 427" stroke-width="6" stroke="url(#SvgjsLinearGradient1008)" stroke-linecap="round" class="Up"></path><path d="M171 384L170 616" stroke-width="6" stroke="url(#SvgjsLinearGradient1007)" stroke-linecap="round" class="Down"></path><path d="M349 269L348 88" stroke-width="8" stroke="url(#SvgjsLinearGradient1007)" stroke-linecap="round" class="Down"></path><path d="M21 209L20 -186" stroke-width="10" stroke="url(#SvgjsLinearGradient1008)" stroke-linecap="round" class="Up"></path><path d="M1088 109L1087 361" stroke-width="8" stroke="url(#SvgjsLinearGradient1007)" stroke-linecap="round" class="Down"></path><path d="M1257 43L1256 342" stroke-width="6" stroke="url(#SvgjsLinearGradient1008)" stroke-linecap="round" class="Up"></path><path d="M1085 230L1084 628" stroke-width="10" stroke="url(#SvgjsLinearGradient1008)" stroke-linecap="round" class="Up"></path><path d="M27 402L26 110" stroke-width="8" stroke="url(#SvgjsLinearGradient1007)" stroke-linecap="round" class="Down"></path><path d="M1275 309L1274 703" stroke-width="10" stroke="url(#SvgjsLinearGradient1008)" stroke-linecap="round" class="Up"></path><path d="M1233 380L1232 192" stroke-width="6" stroke="url(#SvgjsLinearGradient1008)" stroke-linecap="round" class="Up"></path><path d="M1234 412L1233 744" stroke-width="6" stroke="url(#SvgjsLinearGradient1007)" stroke-linecap="round" class="Down"></path><path d="M44 169L43 493" stroke-width="8" stroke="url(#SvgjsLinearGradient1008)" stroke-linecap="round" class="Up"></path><path d="M1307 450L1306 713" stroke-width="6" stroke="url(#SvgjsLinearGradient1007)" stroke-linecap="round" class="Down"></path><path d="M866 257L865 493" stroke-width="6" stroke="url(#SvgjsLinearGradient1008)" stroke-linecap="round" class="Up"></path><path d="M485 360L484 129" stroke-width="8" stroke="url(#SvgjsLinearGradient1008)" stroke-linecap="round" class="Up"></path><path d="M901 398L900 243" stroke-width="10" stroke="url(#SvgjsLinearGradient1007)" stroke-linecap="round" class="Down"></path><path d="M132 47L131 400" stroke-width="8" stroke="url(#SvgjsLinearGradient1008)" stroke-linecap="round" class="Up"></path><path d="M931 546L930 803" stroke-width="6" stroke="url(#SvgjsLinearGradient1007)" stroke-linecap="round" class="Down"></path><path d="M707 379L706 788" stroke-width="8" stroke="url(#SvgjsLinearGradient1007)" stroke-linecap="round" class="Down"></path><path d="M1332 358L1331 684" stroke-width="10" stroke="url(#SvgjsLinearGradient1008)" stroke-linecap="round" class="Up"></path><path d="M9 171L8 -166" stroke-width="10" stroke="url(#SvgjsLinearGradient1008)" stroke-linecap="round" class="Up"></path><path d="M465 306L464 93" stroke-width="10" stroke="url(#SvgjsLinearGradient1007)" stroke-linecap="round" class="Down"></path></g><defs><mask id="SvgjsMask1006"><rect width="1440" height="560" fill="#ffffff"></rect></mask><linearGradient x1="0%" y1="0%" x2="0%" y2="100%" id="SvgjsLinearGradient1007"><stop stop-color="rgba(241, 57, 236, 0)" offset="0"></stop><stop stop-color="rgba(241, 57, 236, 0.55)" offset="1"></stop></linearGradient><linearGradient x1="0%" y1="100%" x2="0%" y2="0%" id="SvgjsLinearGradient1008"><stop stop-color="rgba(241, 57, 236, 0)" offset="0"></stop><stop stop-color="rgba(241, 57, 236, 0.55)" offset="1"></stop></linearGradient></defs></svg>